<?xml version="1.0" encoding="utf-8"?>
<!-- Generator: Adobe Illustrator 16.0.4, SVG Export Plug-In . SVG Version: 6.00 Build 0)  -->
<!DOCTYPE svg PUBLIC "-//W3C//DTD SVG 1.1//EN" "http://www.w3.org/Graphics/SVG/1.1/DTD/svg11.dtd">
<svg version="1.1" xmlns="http://www.w3.org/2000/svg" xmlns:xlink="http://www.w3.org/1999/xlink" x="0px" y="0px"
	 width="150.242px" height="150.241px" viewBox="0 0 150.242 150.241" enable-background="new 0 0 150.242 150.241"
	 xml:space="preserve">
<g id="Layer_2" display="none">
	
		<rect x="-124.879" y="-124.879" display="inline" stroke="#FFFFFF" stroke-width="0.2" stroke-miterlimit="10" width="400" height="400"/>
</g>
<g id="Layer_1">
	<g display="none" opacity="0.25">
		<g display="inline">
			<defs>
				<rect id="SVGID_1_" width="150.242" height="150.241"/>
			</defs>
			<clipPath id="SVGID_2_">
				<use xlink:href="#SVGID_1_"  overflow="visible"/>
			</clipPath>
			<path clip-path="url(#SVGID_2_)" fill="none" stroke="#FFFFFF" stroke-width="0.2" stroke-miterlimit="10" d="M29.379,134.558
				C-3.474,109.274-9.599,62.233,15.684,29.38C40.966-3.473,88.009-9.598,120.863,15.684
				c32.852,25.283,38.978,72.326,13.694,105.179C109.274,153.715,62.232,159.841,29.379,134.558z"/>
			<path clip-path="url(#SVGID_2_)" fill="none" stroke="#FFFFFF" stroke-width="0.2" stroke-miterlimit="10" d="M124.651,113.239
				c21.069-27.377,15.964-66.58-11.413-87.648S46.659,9.626,25.59,37.003c-21.069,27.378-15.965,66.58,11.413,87.649
				C64.38,145.721,103.583,140.616,124.651,113.239z"/>
			<path clip-path="url(#SVGID_2_)" fill="none" stroke="#FFFFFF" stroke-width="0.2" stroke-miterlimit="10" d="M44.626,114.745
				c-21.902-16.854-25.985-48.216-9.13-70.119c16.855-21.902,48.217-25.985,70.118-9.13s25.985,48.217,9.131,70.119
				C97.89,127.518,66.528,131.601,44.626,114.745z"/>
			<path clip-path="url(#SVGID_2_)" fill="none" stroke="#FFFFFF" stroke-width="0.2" stroke-miterlimit="10" d="M104.839,97.992
				c12.641-16.427,9.579-39.948-6.849-52.589c-16.426-12.641-39.947-9.579-52.589,6.848c-12.641,16.426-9.578,39.947,6.848,52.589
				C68.676,117.48,92.198,114.418,104.839,97.992z"/>
			<path clip-path="url(#SVGID_2_)" fill="none" stroke="#FFFFFF" stroke-width="0.2" stroke-miterlimit="10" d="M59.874,94.934
				c-10.951-8.428-12.993-24.108-4.565-35.059c8.427-10.951,24.108-12.993,35.059-4.566c10.951,8.428,12.993,24.108,4.564,35.06
				C86.505,101.319,70.825,103.361,59.874,94.934z"/>
			<path clip-path="url(#SVGID_2_)" fill="none" stroke="#FFFFFF" stroke-width="0.2" stroke-miterlimit="10" d="M85.027,82.745
				c4.214-5.476,3.192-13.316-2.283-17.53c-5.475-4.213-13.315-3.193-17.529,2.283c-4.214,5.475-3.193,13.316,2.282,17.53
				C72.973,89.24,80.813,88.22,85.027,82.745z"/>
			
				<line clip-path="url(#SVGID_2_)" fill="none" stroke="#FFFFFF" stroke-width="0.2" stroke-miterlimit="10" x1="74.725" y1="74.816" x2="28.983" y2="134.253"/>
			
				<line clip-path="url(#SVGID_2_)" fill="none" stroke="#FFFFFF" stroke-width="0.2" stroke-miterlimit="10" x1="75.121" y1="75.121" x2="117.513" y2="136.991"/>
			
				<line clip-path="url(#SVGID_2_)" fill="none" stroke="#FFFFFF" stroke-width="0.2" stroke-miterlimit="10" x1="75.121" y1="75.121" x2="147.063" y2="53.922"/>
			
				<line clip-path="url(#SVGID_2_)" fill="none" stroke="#FFFFFF" stroke-width="0.2" stroke-miterlimit="10" x1="75.121" y1="75.121" x2="77.19" y2="0.15"/>
			
				<line clip-path="url(#SVGID_2_)" fill="none" stroke="#FFFFFF" stroke-width="0.2" stroke-miterlimit="10" x1="75.121" y1="75.121" x2="4.458" y2="49.985"/>
		</g>
	</g>
	<g display="none" opacity="0.5">
		<g display="inline">
			<path fill="none" stroke="#DCDBDB" stroke-width="0.1" stroke-miterlimit="10" d="M75.121,149.454
				c-41.086,0-74.333-33.247-74.333-74.333c0-41.086,33.247-74.333,74.333-74.333c41.086,0,74.333,33.247,74.333,74.333
				C149.454,116.207,116.207,149.454,75.121,149.454z"/>
			<path fill="none" stroke="#DCDBDB" stroke-width="0.1" stroke-miterlimit="10" d="M137.077,75.121
				c0-34.227-27.729-61.956-61.956-61.956S13.165,40.895,13.165,75.121s27.729,61.956,61.956,61.956S137.077,109.348,137.077,75.121
				z"/>
			<path fill="none" stroke="#DCDBDB" stroke-width="0.1" stroke-miterlimit="10" d="M75.121,124.664
				c-27.403,0-49.543-22.14-49.543-49.543c0-27.403,22.141-49.543,49.543-49.543c27.403,0,49.543,22.141,49.543,49.543
				C124.664,102.524,102.524,124.664,75.121,124.664z"/>
			<path fill="none" stroke="#DCDBDB" stroke-width="0.1" stroke-miterlimit="10" d="M112.287,75.121
				c0-20.543-16.623-37.167-37.166-37.167S37.954,54.578,37.954,75.121s16.624,37.166,37.167,37.166S112.287,95.664,112.287,75.121z
				"/>
			<path fill="none" stroke="#DCDBDB" stroke-width="0.1" stroke-miterlimit="10" d="M75.121,99.911
				c-13.684,0-24.79-11.106-24.79-24.79s11.106-24.79,24.79-24.79s24.79,11.106,24.79,24.79S88.804,99.911,75.121,99.911z"/>
			<path fill="none" stroke="#DCDBDB" stroke-width="0.1" stroke-miterlimit="10" d="M87.498,75.121
				c0-6.86-5.518-12.377-12.377-12.377c-6.86,0-12.377,5.517-12.377,12.377c0,6.859,5.517,12.377,12.377,12.377
				C81.98,87.498,87.498,81.98,87.498,75.121z"/>
		</g>
		<g display="inline">
			
				<line fill="none" stroke="#DCDBDB" stroke-width="0.1" stroke-miterlimit="10" x1="75.121" y1="75.121" x2="75.121" y2="149.454"/>
			
				<line fill="none" stroke="#DCDBDB" stroke-width="0.1" stroke-miterlimit="10" x1="75.121" y1="75.121" x2="98.095" y2="145.824"/>
			
				<line fill="none" stroke="#DCDBDB" stroke-width="0.1" stroke-miterlimit="10" x1="75.121" y1="75.121" x2="118.82" y2="135.263"/>
			
				<line fill="none" stroke="#DCDBDB" stroke-width="0.1" stroke-miterlimit="10" x1="75.121" y1="75.121" x2="135.262" y2="118.82"/>
			
				<line fill="none" stroke="#DCDBDB" stroke-width="0.1" stroke-miterlimit="10" x1="75.121" y1="75.121" x2="145.824" y2="98.096"/>
			
				<line fill="none" stroke="#DCDBDB" stroke-width="0.1" stroke-miterlimit="10" x1="75.121" y1="75.121" x2="149.454" y2="75.121"/>
			
				<line fill="none" stroke="#DCDBDB" stroke-width="0.1" stroke-miterlimit="10" x1="75.121" y1="75.121" x2="145.824" y2="52.146"/>
			
				<line fill="none" stroke="#DCDBDB" stroke-width="0.1" stroke-miterlimit="10" x1="75.121" y1="75.121" x2="135.262" y2="31.421"/>
			
				<line fill="none" stroke="#DCDBDB" stroke-width="0.1" stroke-miterlimit="10" x1="75.121" y1="75.121" x2="118.82" y2="14.979"/>
			<line fill="none" stroke="#DCDBDB" stroke-width="0.1" stroke-miterlimit="10" x1="75.121" y1="75.121" x2="98.095" y2="4.417"/>
			<line fill="none" stroke="#DCDBDB" stroke-width="0.1" stroke-miterlimit="10" x1="75.121" y1="75.121" x2="75.121" y2="0.788"/>
			<line fill="none" stroke="#DCDBDB" stroke-width="0.1" stroke-miterlimit="10" x1="75.121" y1="75.121" x2="52.146" y2="4.417"/>
			
				<line fill="none" stroke="#DCDBDB" stroke-width="0.1" stroke-miterlimit="10" x1="75.121" y1="75.121" x2="31.421" y2="14.979"/>
			
				<line fill="none" stroke="#DCDBDB" stroke-width="0.1" stroke-miterlimit="10" x1="75.121" y1="75.121" x2="14.979" y2="31.421"/>
			<line fill="none" stroke="#DCDBDB" stroke-width="0.1" stroke-miterlimit="10" x1="75.121" y1="75.121" x2="4.417" y2="52.146"/>
			<line fill="none" stroke="#DCDBDB" stroke-width="0.1" stroke-miterlimit="10" x1="75.121" y1="75.121" x2="0.788" y2="75.121"/>
			<line fill="none" stroke="#DCDBDB" stroke-width="0.1" stroke-miterlimit="10" x1="75.121" y1="75.121" x2="4.417" y2="98.096"/>
			
				<line fill="none" stroke="#DCDBDB" stroke-width="0.1" stroke-miterlimit="10" x1="75.121" y1="75.121" x2="14.979" y2="118.82"/>
			
				<line fill="none" stroke="#DCDBDB" stroke-width="0.1" stroke-miterlimit="10" x1="75.121" y1="75.121" x2="31.421" y2="135.263"/>
			
				<line fill="none" stroke="#DCDBDB" stroke-width="0.1" stroke-miterlimit="10" x1="75.121" y1="75.121" x2="52.146" y2="145.824"/>
		</g>
	</g>
	<g opacity="0.5">
		<g>
			<path fill="none" stroke="#DCDBDB" stroke-width="0.1" stroke-miterlimit="10" d="M149.889,75.121
				c0-41.328-33.441-74.769-74.769-74.769c-41.328,0-74.769,33.441-74.769,74.769c0,41.327,33.441,74.769,74.769,74.769
				C116.448,149.89,149.889,116.448,149.889,75.121z"/>
			<path fill="none" stroke="#DCDBDB" stroke-width="0.1" stroke-miterlimit="10" d="M75.121,134.921
				c-33.076,0-59.8-26.724-59.8-59.8s26.724-59.8,59.8-59.8s59.8,26.724,59.8,59.8S108.197,134.921,75.121,134.921z"/>
			<path fill="none" stroke="#DCDBDB" stroke-width="0.1" stroke-miterlimit="10" d="M119.988,75.121
				c0-24.789-20.078-44.869-44.867-44.869c-24.789,0-44.869,20.08-44.869,44.869c0,24.789,20.08,44.867,44.869,44.867
				C99.91,119.988,119.988,99.91,119.988,75.121z"/>
			<path fill="none" stroke="#DCDBDB" stroke-width="0.1" stroke-miterlimit="10" d="M75.121,105.021
				c-16.538,0-29.9-13.361-29.9-29.899s13.362-29.9,29.9-29.9s29.899,13.362,29.899,29.9S91.659,105.021,75.121,105.021z"/>
			<path fill="none" stroke="#DCDBDB" stroke-width="0.1" stroke-miterlimit="10" d="M90.088,75.121
				c0-8.25-6.717-14.969-14.968-14.969c-8.25,0-14.969,6.718-14.969,14.969c0,8.251,6.718,14.968,14.969,14.968
				C83.372,90.089,90.088,83.372,90.088,75.121z"/>
		</g>
		<g>
			
				<line fill="none" stroke="#DCDBDB" stroke-width="0.1" stroke-miterlimit="10" x1="75.121" y1="75.121" x2="75.121" y2="149.89"/>
			
				<line fill="none" stroke="#DCDBDB" stroke-width="0.1" stroke-miterlimit="10" x1="75.121" y1="75.121" x2="98.23" y2="146.238"/>
			
				<line fill="none" stroke="#DCDBDB" stroke-width="0.1" stroke-miterlimit="10" x1="75.121" y1="75.121" x2="119.077" y2="135.615"/>
			
				<line fill="none" stroke="#DCDBDB" stroke-width="0.1" stroke-miterlimit="10" x1="75.121" y1="75.121" x2="135.615" y2="119.077"/>
			
				<line fill="none" stroke="#DCDBDB" stroke-width="0.1" stroke-miterlimit="10" x1="75.121" y1="75.121" x2="146.238" y2="98.23"/>
			
				<line fill="none" stroke="#DCDBDB" stroke-width="0.1" stroke-miterlimit="10" x1="75.121" y1="75.121" x2="149.889" y2="75.121"/>
			
				<line fill="none" stroke="#DCDBDB" stroke-width="0.1" stroke-miterlimit="10" x1="75.121" y1="75.121" x2="146.238" y2="52.012"/>
			
				<line fill="none" stroke="#DCDBDB" stroke-width="0.1" stroke-miterlimit="10" x1="75.121" y1="75.121" x2="135.615" y2="31.165"/>
			
				<line fill="none" stroke="#DCDBDB" stroke-width="0.1" stroke-miterlimit="10" x1="75.121" y1="75.121" x2="119.077" y2="14.627"/>
			<line fill="none" stroke="#DCDBDB" stroke-width="0.1" stroke-miterlimit="10" x1="75.121" y1="75.121" x2="98.23" y2="4.003"/>
			<line fill="none" stroke="#DCDBDB" stroke-width="0.1" stroke-miterlimit="10" x1="75.121" y1="75.121" x2="75.121" y2="0.353"/>
			<line fill="none" stroke="#DCDBDB" stroke-width="0.1" stroke-miterlimit="10" x1="75.121" y1="75.121" x2="52.011" y2="4.003"/>
			
				<line fill="none" stroke="#DCDBDB" stroke-width="0.1" stroke-miterlimit="10" x1="75.121" y1="75.121" x2="31.165" y2="14.627"/>
			
				<line fill="none" stroke="#DCDBDB" stroke-width="0.1" stroke-miterlimit="10" x1="75.121" y1="75.121" x2="14.626" y2="31.165"/>
			<line fill="none" stroke="#DCDBDB" stroke-width="0.1" stroke-miterlimit="10" x1="75.121" y1="75.121" x2="4.003" y2="52.012"/>
			<line fill="none" stroke="#DCDBDB" stroke-width="0.1" stroke-miterlimit="10" x1="75.121" y1="75.121" x2="0.352" y2="75.121"/>
			<line fill="none" stroke="#DCDBDB" stroke-width="0.1" stroke-miterlimit="10" x1="75.121" y1="75.121" x2="4.003" y2="98.23"/>
			
				<line fill="none" stroke="#DCDBDB" stroke-width="0.1" stroke-miterlimit="10" x1="75.121" y1="75.121" x2="14.626" y2="119.077"/>
			
				<line fill="none" stroke="#DCDBDB" stroke-width="0.1" stroke-miterlimit="10" x1="75.121" y1="75.121" x2="31.165" y2="135.615"/>
			
				<line fill="none" stroke="#DCDBDB" stroke-width="0.1" stroke-miterlimit="10" x1="75.121" y1="75.121" x2="52.011" y2="146.238"/>
		</g>
	</g>
</g>
</svg>
