<?xml version="1.0" encoding="utf-8"?>
<!-- Generator: Adobe Illustrator 16.0.4, SVG Export Plug-In . SVG Version: 6.00 Build 0)  -->
<!DOCTYPE svg PUBLIC "-//W3C//DTD SVG 1.1//EN" "http://www.w3.org/Graphics/SVG/1.1/DTD/svg11.dtd">
<svg version="1.1" id="Layer_1" xmlns="http://www.w3.org/2000/svg" xmlns:xlink="http://www.w3.org/1999/xlink" x="0px" y="0px"
	 width="165px" height="165px" viewBox="-1 0 165 165" enable-background="new -1 0 165 165" xml:space="preserve">
<g id="Layer_2" display="none">
	
		<rect x="-0.724" y="-1.379" display="inline" stroke="#FFFFFF" stroke-width="0.2" stroke-miterlimit="10" width="289.845" height="291.5"/>
</g>
<g id="Layer_1_1_">
	<g>
		<g>
			<path fill="none" stroke="#F7F7F7" stroke-width="0.1" stroke-miterlimit="10" d="M155.818,82.4
				c0-40.902-33.096-73.998-73.998-73.998S7.822,41.498,7.822,82.4s33.096,73.999,73.999,73.999S155.818,123.302,155.818,82.4z"/>
			<path fill="none" stroke="#F7F7F7" stroke-width="0.1" stroke-miterlimit="10" d="M81.82,141.584
				c-32.734,0-59.183-26.449-59.183-59.185S49.086,23.217,81.82,23.217c32.736,0,59.185,26.448,59.185,59.183
				S114.557,141.584,81.82,141.584z"/>
			<path fill="none" stroke="#F7F7F7" stroke-width="0.1" stroke-miterlimit="10" d="M126.227,82.4
				c0-24.533-19.871-44.407-44.404-44.407S37.415,57.867,37.415,82.4c0,24.534,19.874,44.405,44.407,44.405
				S126.227,106.934,126.227,82.4z"/>
			<path fill="none" stroke="#F7F7F7" stroke-width="0.1" stroke-miterlimit="10" d="M81.82,111.993
				c-16.366,0-29.59-13.226-29.59-29.592S65.455,52.81,81.82,52.81c16.367,0,29.593,13.224,29.593,29.591
				S98.188,111.993,81.82,111.993z"/>
			<path fill="none" stroke="#F7F7F7" stroke-width="0.1" stroke-miterlimit="10" d="M96.634,82.4
				c0-8.165-6.647-14.815-14.813-14.815c-8.165,0-14.814,6.649-14.814,14.815c0,8.167,6.649,14.813,14.814,14.813
				C89.986,97.213,96.634,90.566,96.634,82.4z"/>
		</g>
		<g>
			<line fill="none" stroke="#F7F7F7" stroke-width="0.1" stroke-miterlimit="10" x1="81.82" y1="82.4" x2="81.82" y2="156.398"/>
			<line fill="none" stroke="#F7F7F7" stroke-width="0.1" stroke-miterlimit="10" x1="81.82" y1="82.4" x2="104.691" y2="152.785"/>
			<line fill="none" stroke="#F7F7F7" stroke-width="0.1" stroke-miterlimit="10" x1="81.82" y1="82.4" x2="125.325" y2="142.27"/>
			<line fill="none" stroke="#F7F7F7" stroke-width="0.1" stroke-miterlimit="10" x1="81.82" y1="82.4" x2="141.691" y2="125.904"/>
			<line fill="none" stroke="#F7F7F7" stroke-width="0.1" stroke-miterlimit="10" x1="81.82" y1="82.4" x2="152.206" y2="105.271"/>
			<line fill="none" stroke="#F7F7F7" stroke-width="0.1" stroke-miterlimit="10" x1="81.82" y1="82.4" x2="155.818" y2="82.4"/>
			<line fill="none" stroke="#F7F7F7" stroke-width="0.1" stroke-miterlimit="10" x1="81.82" y1="82.4" x2="152.206" y2="59.53"/>
			<line fill="none" stroke="#F7F7F7" stroke-width="0.1" stroke-miterlimit="10" x1="81.82" y1="82.4" x2="141.691" y2="38.897"/>
			<line fill="none" stroke="#F7F7F7" stroke-width="0.1" stroke-miterlimit="10" x1="81.82" y1="82.4" x2="125.325" y2="22.529"/>
			<line fill="none" stroke="#F7F7F7" stroke-width="0.1" stroke-miterlimit="10" x1="81.82" y1="82.4" x2="104.691" y2="12.015"/>
			<line fill="none" stroke="#F7F7F7" stroke-width="0.1" stroke-miterlimit="10" x1="81.82" y1="82.4" x2="81.82" y2="8.403"/>
			<line fill="none" stroke="#F7F7F7" stroke-width="0.1" stroke-miterlimit="10" x1="81.82" y1="82.4" x2="58.95" y2="12.015"/>
			<line fill="none" stroke="#F7F7F7" stroke-width="0.1" stroke-miterlimit="10" x1="81.82" y1="82.4" x2="38.318" y2="22.529"/>
			<line fill="none" stroke="#F7F7F7" stroke-width="0.1" stroke-miterlimit="10" x1="81.82" y1="82.4" x2="21.95" y2="38.897"/>
			<line fill="none" stroke="#F7F7F7" stroke-width="0.1" stroke-miterlimit="10" x1="81.82" y1="82.4" x2="11.436" y2="59.53"/>
			<line fill="none" stroke="#F7F7F7" stroke-width="0.1" stroke-miterlimit="10" x1="81.82" y1="82.4" x2="7.823" y2="82.4"/>
			<line fill="none" stroke="#F7F7F7" stroke-width="0.1" stroke-miterlimit="10" x1="81.82" y1="82.4" x2="11.436" y2="105.271"/>
			<line fill="none" stroke="#F7F7F7" stroke-width="0.1" stroke-miterlimit="10" x1="81.82" y1="82.4" x2="21.95" y2="125.904"/>
			<line fill="none" stroke="#F7F7F7" stroke-width="0.1" stroke-miterlimit="10" x1="81.82" y1="82.4" x2="38.318" y2="142.27"/>
			<line fill="none" stroke="#F7F7F7" stroke-width="0.1" stroke-miterlimit="10" x1="81.82" y1="82.4" x2="58.95" y2="152.785"/>
		</g>
	</g>
</g>
<text transform="matrix(1 0 0 1 156.0254 59.4023)" fill="#F7F7F7" font-family="'Avenir-Light'" font-size="6">1</text>
<text transform="matrix(1 0 0 1 158.6924 83.4023)" fill="#F7F7F7" font-family="'Avenir-Light'" font-size="6">2</text>
<text transform="matrix(1 0 0 1 155.8184 108.7363)" fill="#F7F7F7" font-family="'Avenir-Light'" font-size="6">3</text>
<text transform="matrix(1 0 0 1 145.0254 131.4043)" fill="#F7F7F7" font-family="'Avenir-Light'" font-size="6">4</text>
<text transform="matrix(1 0 0 1 127.2256 149.7363)" fill="#F7F7F7" font-family="'Avenir-Light'" font-size="6">5</text>
<text transform="matrix(1 0 0 1 104.6924 160.7363)" fill="#F7F7F7" font-family="'Avenir-Light'" font-size="6">6</text>
<text transform="matrix(1 0 0 1 81.8218 163.9434)" fill="#F7F7F7" font-family="'Avenir-Light'" font-size="6">7</text>
<text transform="matrix(1 0 0 1 56.3584 160.7363)" fill="#F7F7F7" font-family="'Avenir-Light'" font-size="6">8</text>
<text transform="matrix(1 0 0 1 33.4146 149.7363)" fill="#F7F7F7" font-family="'Avenir-Light'" font-size="6">9</text>
<text transform="matrix(1 0 0 1 13.6167 131.4043)" fill="#F7F7F7" font-family="'Avenir-Light'" font-size="6">10</text>
<text transform="matrix(1 0 0 1 2.2837 108.7363)" fill="#F7F7F7" font-family="'Avenir-Light'" font-size="6">11</text>
<text transform="matrix(1 0 0 1 -0.7236 83.4023)" fill="#F7F7F7" font-family="'Avenir-Light'" font-size="6">12</text>
<text transform="matrix(1 0 0 1 2.2837 60.6484)" fill="#F7F7F7" font-family="'Avenir-Light'" font-size="6">13</text>
<text transform="matrix(1 0 0 1 13.6167 37.9932)" fill="#F7F7F7" font-family="'Avenir-Light'" font-size="6">14</text>
<text transform="matrix(1 0 0 1 30.5586 19.7344)" fill="#F7F7F7" font-family="'Avenir-Light'" font-size="6">15</text>
<text transform="matrix(1 0 0 1 52.23 8.4023)" fill="#F7F7F7" font-family="'Avenir-Light'" font-size="6">16</text>
<text transform="matrix(1 0 0 1 79.0757 5.4014)" fill="#F7F7F7" font-family="'Avenir-Light'" font-size="6">17</text>
<text transform="matrix(1 0 0 1 103.5732 8.4023)" fill="#F7F7F7" font-family="'Avenir-Light'" font-size="6">18</text>
<text transform="matrix(1 0 0 1 126.2256 19.7344)" fill="#F7F7F7" font-family="'Avenir-Light'" font-size="6">19</text>
<text transform="matrix(1 0 0 1 144.1982 36.7344)" fill="#F4F4F4" font-family="'Avenir-Light'" font-size="6">20</text>
</svg>
