<?xml version="1.0" encoding="utf-8"?>
<!-- Generator: Adobe Illustrator 16.0.4, SVG Export Plug-In . SVG Version: 6.00 Build 0)  -->
<!DOCTYPE svg PUBLIC "-//W3C//DTD SVG 1.1//EN" "http://www.w3.org/Graphics/SVG/1.1/DTD/svg11.dtd">
<svg version="1.1" id="Layer_1" xmlns="http://www.w3.org/2000/svg" xmlns:xlink="http://www.w3.org/1999/xlink" x="0px" y="0px"
	 width="165px" height="165px" viewBox="-14.724 -15.057 165 165" enable-background="new -14.724 -15.057 165 165"
	 xml:space="preserve">
<g id="Layer_2" display="none">
	
		<rect x="-14.724" y="-16.379" display="inline" stroke="#FFFFFF" stroke-width="0.2" stroke-miterlimit="10" width="289.845" height="291.5"/>
</g>
<g id="Layer_1_1_">
	<g>
		<g>
			<path fill="none" stroke="#F7F7F7" stroke-width="0.5" stroke-miterlimit="10" d="M141.818,67.4
				c0-40.902-33.096-73.998-73.998-73.998C26.918-6.598-6.178,26.498-6.178,67.4s33.096,73.998,73.998,73.998
				C108.723,141.398,141.818,108.302,141.818,67.4z"/>
			<path fill="none" stroke="#F7F7F7" stroke-width="0.5" stroke-miterlimit="10" d="M67.821,126.584
				c-32.735,0-59.184-26.449-59.184-59.185S35.086,8.217,67.821,8.217c32.735,0,59.184,26.448,59.184,59.183
				S100.557,126.584,67.821,126.584z"/>
			<path fill="none" stroke="#F7F7F7" stroke-width="0.5" stroke-miterlimit="10" d="M112.226,67.4
				c0-24.533-19.871-44.407-44.404-44.407S23.415,42.867,23.415,67.4s19.874,44.404,44.407,44.404S112.226,91.933,112.226,67.4z"/>
			<path fill="none" stroke="#F7F7F7" stroke-width="0.5" stroke-miterlimit="10" d="M67.821,96.993
				c-16.367,0-29.591-13.225-29.591-29.592S51.455,37.81,67.821,37.81c16.367,0,29.592,13.224,29.592,29.591
				S84.188,96.993,67.821,96.993z"/>
			<path fill="none" stroke="#F7F7F7" stroke-width="0.5" stroke-miterlimit="10" d="M82.634,67.4
				c0-8.165-6.647-14.815-14.813-14.815c-8.165,0-14.815,6.649-14.815,14.815c0,8.167,6.649,14.813,14.815,14.813
				C75.987,82.213,82.634,75.566,82.634,67.4z"/>
		</g>
		<g>
			<line fill="none" stroke="#F7F7F7" stroke-width="0.5" stroke-miterlimit="10" x1="67.821" y1="67.4" x2="67.821" y2="141.398"/>
			<line fill="none" stroke="#F7F7F7" stroke-width="0.5" stroke-miterlimit="10" x1="67.821" y1="67.4" x2="90.692" y2="137.785"/>
			<line fill="none" stroke="#F7F7F7" stroke-width="0.5" stroke-miterlimit="10" x1="67.821" y1="67.4" x2="111.325" y2="127.27"/>
			
				<line fill="none" stroke="#F7F7F7" stroke-width="0.5" stroke-miterlimit="10" x1="67.821" y1="67.4" x2="127.691" y2="110.905"/>
			<line fill="none" stroke="#F7F7F7" stroke-width="0.5" stroke-miterlimit="10" x1="67.821" y1="67.4" x2="138.206" y2="90.272"/>
			<line fill="none" stroke="#F7F7F7" stroke-width="0.5" stroke-miterlimit="10" x1="67.821" y1="67.4" x2="141.818" y2="67.4"/>
			<line fill="none" stroke="#F7F7F7" stroke-width="0.5" stroke-miterlimit="10" x1="67.821" y1="67.4" x2="138.206" y2="44.53"/>
			<line fill="none" stroke="#F7F7F7" stroke-width="0.5" stroke-miterlimit="10" x1="67.821" y1="67.4" x2="127.691" y2="23.897"/>
			<line fill="none" stroke="#F7F7F7" stroke-width="0.5" stroke-miterlimit="10" x1="67.821" y1="67.4" x2="111.325" y2="7.529"/>
			<line fill="none" stroke="#F7F7F7" stroke-width="0.5" stroke-miterlimit="10" x1="67.821" y1="67.4" x2="90.692" y2="-2.985"/>
			<line fill="none" stroke="#F7F7F7" stroke-width="0.5" stroke-miterlimit="10" x1="67.821" y1="67.4" x2="67.821" y2="-6.597"/>
			<line fill="none" stroke="#F7F7F7" stroke-width="0.5" stroke-miterlimit="10" x1="67.821" y1="67.4" x2="44.95" y2="-2.985"/>
			<line fill="none" stroke="#F7F7F7" stroke-width="0.5" stroke-miterlimit="10" x1="67.821" y1="67.4" x2="24.318" y2="7.529"/>
			<line fill="none" stroke="#F7F7F7" stroke-width="0.5" stroke-miterlimit="10" x1="67.821" y1="67.4" x2="7.95" y2="23.897"/>
			<line fill="none" stroke="#F7F7F7" stroke-width="0.5" stroke-miterlimit="10" x1="67.821" y1="67.4" x2="-2.564" y2="44.53"/>
			<line fill="none" stroke="#F7F7F7" stroke-width="0.5" stroke-miterlimit="10" x1="67.821" y1="67.4" x2="-6.177" y2="67.4"/>
			<line fill="none" stroke="#F7F7F7" stroke-width="0.5" stroke-miterlimit="10" x1="67.821" y1="67.4" x2="-2.564" y2="90.272"/>
			<line fill="none" stroke="#F7F7F7" stroke-width="0.5" stroke-miterlimit="10" x1="67.821" y1="67.4" x2="7.95" y2="110.905"/>
			<line fill="none" stroke="#F7F7F7" stroke-width="0.5" stroke-miterlimit="10" x1="67.821" y1="67.4" x2="24.318" y2="127.27"/>
			<line fill="none" stroke="#F7F7F7" stroke-width="0.5" stroke-miterlimit="10" x1="67.821" y1="67.4" x2="44.95" y2="137.785"/>
		</g>
	</g>
</g>
<text transform="matrix(1 0 0 1 142.0254 44.4028)" fill="#F7F7F7" font-family="'Avenir-Light'" font-size="6">1</text>
<text transform="matrix(1 0 0 1 144.6924 68.4028)" fill="#F7F7F7" font-family="'Avenir-Light'" font-size="6">2</text>
<text transform="matrix(1 0 0 1 141.8184 93.7368)" fill="#F7F7F7" font-family="'Avenir-Light'" font-size="6">3</text>
<text transform="matrix(1 0 0 1 131.0254 116.4038)" fill="#F7F7F7" font-family="'Avenir-Light'" font-size="6">4</text>
<text transform="matrix(1 0 0 1 113.2256 134.7368)" fill="#F7F7F7" font-family="'Avenir-Light'" font-size="6">5</text>
<text transform="matrix(1 0 0 1 90.6924 145.7368)" fill="#F7F7F7" font-family="'Avenir-Light'" font-size="6">6</text>
<text transform="matrix(1 0 0 1 67.8218 148.9429)" fill="#F7F7F7" font-family="'Avenir-Light'" font-size="6">7</text>
<text transform="matrix(1 0 0 1 42.3584 145.7368)" fill="#F7F7F7" font-family="'Avenir-Light'" font-size="6">8</text>
<text transform="matrix(1 0 0 1 19.4146 134.7368)" fill="#F7F7F7" font-family="'Avenir-Light'" font-size="6">9</text>
<text transform="matrix(1 0 0 1 -0.3833 116.4038)" fill="#F7F7F7" font-family="'Avenir-Light'" font-size="6">10</text>
<text transform="matrix(1 0 0 1 -11.7163 93.7368)" fill="#F7F7F7" font-family="'Avenir-Light'" font-size="6">11</text>
<text transform="matrix(1 0 0 1 -14.7236 68.4028)" fill="#F7F7F7" font-family="'Avenir-Light'" font-size="6">12</text>
<text transform="matrix(1 0 0 1 -11.7163 45.6484)" fill="#F7F7F7" font-family="'Avenir-Light'" font-size="6">13</text>
<text transform="matrix(1 0 0 1 -0.3833 22.9932)" fill="#F7F7F7" font-family="'Avenir-Light'" font-size="6">14</text>
<text transform="matrix(1 0 0 1 16.5586 4.7344)" fill="#F7F7F7" font-family="'Avenir-Light'" font-size="6">15</text>
<text transform="matrix(1 0 0 1 38.23 -6.5972)" fill="#F7F7F7" font-family="'Avenir-Light'" font-size="6">16</text>
<text transform="matrix(1 0 0 1 65.0757 -9.5986)" fill="#F7F7F7" font-family="'Avenir-Light'" font-size="6">17</text>
<text transform="matrix(1 0 0 1 89.5732 -6.5981)" fill="#F7F7F7" font-family="'Avenir-Light'" font-size="6">18</text>
<text transform="matrix(1 0 0 1 112.2256 4.7344)" fill="#F7F7F7" font-family="'Avenir-Light'" font-size="6">19</text>
<text transform="matrix(1 0 0 1 130.1982 21.7344)" fill="#F4F4F4" font-family="'Avenir-Light'" font-size="6">20</text>
</svg>
